# xmcd CD database file
#
# Track frame offsets:
#	150
#	8479
#	16278
#	29218
#	40053
#	53404
#	67098
#	78744
#	90826
#	101942
#	113495
#	128531
#	137259
#	150119
#	164399
#	178132
#	189786
#	203064
#	213917
#	224726
#
# Disc length: 3194 seconds
#
# Revision: 0
# Processed by: cddbd v1.5.2PL0 Copyright (c) Steve Scherf et al.
# Submitted via: CDex 1.70beta2
#
DISCID=fd0c7814
DTITLE=Nat King Cole - Deja Vu Definitive Gold
DYEAR=2006
DGENRE=Jazz
TTITLE0=Take me back to toyland
TTITLE1=A house with love in it
TTITLE2=Honey hush
TTITLE3=Beautiful moons ago
TTITLE4=Laguna mood
TTITLE5=Route 66
TTITLE6=Blue and Sentimental
TTITLE7=Gone with the draft
TTITLE8=My baby likes to be-bop
TTITLE9=Too marvellous for words
TTITLE10=This will make you laugh
TTITLE11=Cole Capers
TTITLE12=Jack the bellboy
TTITLE13=Sweet Lorraine
TTITLE14=Could'ja?
TTITLE15=Poor butterfly
TTITLE16=Hit that jive Jack
TTITLE17=That's what
TTITLE18=When I take my sugar to tea
TTITLE19=The frim fram sauce
EXTD=YEAR: 2006
EXTT0=
EXTT1=
EXTT2=
EXTT3=
EXTT4=
EXTT5=
EXTT6=
EXTT7=
EXTT8=
EXTT9=
EXTT10=
EXTT11=
EXTT12=
EXTT13=
EXTT14=
EXTT15=
EXTT16=
EXTT17=
EXTT18=
EXTT19=
PLAYORDER=
